<svg width="31" height="31" viewBox="0 0 31 31" fill="none" xmlns="http://www.w3.org/2000/svg">
<path d="M9.04139 23.2498C8.78596 23.2497 8.53629 23.1739 8.32392 23.032C8.11156 22.89 7.94605 22.6883 7.84831 22.4523C7.75057 22.2164 7.72499 21.9567 7.7748 21.7062C7.82462 21.4556 7.9476 21.2255 8.12818 21.0449L21.0448 8.12821C21.2885 7.89292 21.6147 7.76273 21.9534 7.76567C22.2921 7.76862 22.616 7.90446 22.8555 8.14395C23.095 8.38343 23.2309 8.7074 23.2338 9.04607C23.2367 9.38474 23.1066 9.71102 22.8713 9.95463L9.9546 22.8713C9.83481 22.9914 9.69247 23.0867 9.53576 23.1516C9.37904 23.2166 9.21103 23.2499 9.04139 23.2498V23.2498Z" fill="#53504B"/>
<path d="M21.9581 23.2498C21.7884 23.2499 21.6204 23.2166 21.4637 23.1516C21.307 23.0867 21.1647 22.9914 21.0449 22.8713L8.12821 9.95463C7.89292 9.71102 7.76273 9.38474 7.76567 9.04607C7.76862 8.7074 7.90446 8.38343 8.14395 8.14395C8.38343 7.90446 8.7074 7.76862 9.04607 7.76567C9.38474 7.76273 9.71102 7.89292 9.95463 8.12821L22.8713 21.0449C23.0519 21.2255 23.1749 21.4556 23.2247 21.7062C23.2745 21.9567 23.2489 22.2164 23.1512 22.4523C23.0534 22.6883 22.8879 22.89 22.6756 23.032C22.4632 23.1739 22.2135 23.2497 21.9581 23.2498Z" fill="#53504B"/>
</svg>
