<svg width="21" height="20" viewBox="0 0 21 20" fill="none" xmlns="http://www.w3.org/2000/svg">
<g clip-path="url(#clip0_37_1812)">
<path d="M19.6668 10C19.6668 9.33696 19.4034 8.70107 18.9346 8.23223C18.4658 7.76339 17.8299 7.5 17.1668 7.5H16.3335V5H1.3335V17.5C1.3335 18.163 1.59689 18.7989 2.06573 19.2678C2.53457 19.7366 3.17045 20 3.8335 20H13.8335C14.4965 20 15.1324 19.7366 15.6013 19.2678C16.0701 18.7989 16.3335 18.163 16.3335 17.5V15.8333H19.6668V10ZM18.0002 14.1667H16.3335V9.16667H17.1668C17.3878 9.16667 17.5998 9.25446 17.7561 9.41074C17.9124 9.56702 18.0002 9.77899 18.0002 10V14.1667ZM9.66683 3.33333H8.00016V0H9.66683V3.33333ZM13.0002 3.33333H11.3335V0H13.0002V3.33333ZM6.3335 3.33333H4.66683V0H6.3335V3.33333Z" fill="white"/>
</g>
<defs>
<clipPath id="clip0_37_1812">
<rect width="20" height="20" fill="white" transform="translate(0.5)"/>
</clipPath>
</defs>
</svg>
