<svg width="31" height="31" viewBox="0 0 31 31" fill="none" xmlns="http://www.w3.org/2000/svg">
<rect width="31" height="31" fill="white"/>
<path d="M27.1276 16.7917H3.8776C3.53503 16.7917 3.20649 16.6556 2.96426 16.4133C2.72202 16.1711 2.58594 15.8426 2.58594 15.5C2.58594 15.1574 2.72202 14.8289 2.96426 14.5867C3.20649 14.3444 3.53503 14.2083 3.8776 14.2083H27.1276C27.4702 14.2083 27.7987 14.3444 28.041 14.5867C28.2832 14.8289 28.4193 15.1574 28.4193 15.5C28.4193 15.8426 28.2832 16.1711 28.041 16.4133C27.7987 16.6556 27.4702 16.7917 27.1276 16.7917ZM27.1276 23.25H3.8776C3.53503 23.25 3.20649 23.1139 2.96426 22.8717C2.72202 22.6294 2.58594 22.3009 2.58594 21.9583C2.58594 21.6158 2.72202 21.2872 2.96426 21.045C3.20649 20.8028 3.53503 20.6667 3.8776 20.6667H27.1276C27.4702 20.6667 27.7987 20.8028 28.041 21.045C28.2832 21.2872 28.4193 21.6158 28.4193 21.9583C28.4193 22.3009 28.2832 22.6294 28.041 22.8717C27.7987 23.1139 27.4702 23.25 27.1276 23.25ZM27.1276 10.3333H3.8776C3.53503 10.3333 3.20649 10.1972 2.96426 9.95501C2.72202 9.71278 2.58594 9.38424 2.58594 9.04167C2.58594 8.6991 2.72202 8.37056 2.96426 8.12832C3.20649 7.88609 3.53503 7.75 3.8776 7.75H27.1276C27.4702 7.75 27.7987 7.88609 28.041 8.12832C28.2832 8.37056 28.4193 8.6991 28.4193 9.04167C28.4193 9.38424 28.2832 9.71278 28.041 9.95501C27.7987 10.1972 27.4702 10.3333 27.1276 10.3333Z" fill="#53504B"/>
</svg>
