<svg width="20" height="20" viewBox="0 0 20 20" fill="none" xmlns="http://www.w3.org/2000/svg">
<g clip-path="url(#clip0_206_556)">
<path d="M8.67446 16.322C7.35108 17.6943 5.19591 17.8209 3.72103 16.6129C2.84266 15.8524 2.39398 14.7089 2.5208 13.554C2.63063 12.7025 3.02859 11.9142 3.64852 11.3202L6.04564 8.92147C6.5337 8.43326 6.5337 7.64186 6.04564 7.15364C5.55743 6.66558 4.76603 6.66558 4.27781 7.15364L1.93155 9.50076C0.862056 10.5321 0.187593 11.9054 0.0253363 13.3823C-0.277728 16.7086 2.17308 19.6508 5.49941 19.9539C7.28572 20.1167 9.05215 19.4781 10.3214 18.2107L12.8286 15.7044C13.3166 15.2162 13.3166 14.4248 12.8286 13.9366C12.3403 13.4485 11.5489 13.4485 11.0607 13.9366L8.67446 16.322Z" fill="#53504B"/>
<path d="M17.6352 1.2223C15.1462 -0.606399 11.6899 -0.319704 9.53621 1.89411L7.17659 4.25455C6.68853 4.74277 6.68853 5.53417 7.17659 6.02238C7.66481 6.51044 8.45621 6.51044 8.94442 6.02238L11.3416 3.62775C12.636 2.28895 14.7304 2.13814 16.2033 3.27769C17.7193 4.52081 17.9406 6.75752 16.6974 8.27355C16.6247 8.36228 16.5477 8.44741 16.4667 8.52867L13.9595 11.0358C13.4714 11.524 13.4714 12.3154 13.9595 12.8037C14.4477 13.2917 15.2391 13.2917 15.7273 12.8037L18.2345 10.2965C20.5948 7.92864 20.5887 4.09569 18.2208 1.73537C18.0369 1.55197 17.8412 1.38061 17.6352 1.2223Z" fill="#53504B"/>
<path d="M7.17674 11.0378L11.0613 7.1533C11.5495 6.66505 12.3411 6.66505 12.8294 7.1533C13.3176 7.64156 13.3176 8.43315 12.8294 8.92141L8.94484 12.8059C8.45659 13.2942 7.66499 13.2942 7.17674 12.8059C6.68848 12.3177 6.68848 11.5261 7.17674 11.0378Z" fill="#53504B"/>
</g>
<defs>
<clipPath id="clip0_206_556">
<rect width="20" height="20" fill="white"/>
</clipPath>
</defs>
</svg>
