<svg width="20" height="20" viewBox="0 0 20 20" fill="none" xmlns="http://www.w3.org/2000/svg">
<g clip-path="url(#clip0_14_607)">
<path d="M19.6343 17.871L15.7634 13.9984C18.6598 10.1278 17.87 4.64195 13.9994 1.74551C10.1288 -1.15092 4.64292 -0.361157 1.74649 3.50949C-1.14994 7.38013 -0.36018 12.866 3.51046 15.7624C6.61969 18.0891 10.8901 18.0891 13.9994 15.7624L17.872 19.635C18.3586 20.1216 19.1477 20.1216 19.6343 19.635C20.1209 19.1483 20.1209 18.3593 19.6343 17.8727L19.6343 17.871ZM8.7872 15.015C5.34716 15.015 2.55848 12.2263 2.55848 8.78623C2.55848 5.34618 5.34716 2.55751 8.7872 2.55751C12.2272 2.55751 15.0159 5.34618 15.0159 8.78623C15.0123 12.2247 12.2257 15.0113 8.7872 15.015Z" fill="#53504B"/>
</g>
<defs>
<clipPath id="clip0_14_607">
<rect width="20" height="20" fill="white"/>
</clipPath>
</defs>
</svg>
