<svg width="24" height="24" viewBox="0 0 24 24" fill="none" xmlns="http://www.w3.org/2000/svg">
<path d="M24 5.3083C23.0972 5.70205 22.1424 5.96374 21.165 6.0853C22.195 5.47424 22.9651 4.50665 23.3295 3.3658C22.365 3.93781 21.3098 4.34061 20.2095 4.5568C19.5349 3.83647 18.6592 3.33568 17.6962 3.11949C16.7333 2.90331 15.7276 2.98172 14.8098 3.34454C13.892 3.70736 13.1045 4.33782 12.5496 5.15401C11.9948 5.97019 11.6982 6.93438 11.6985 7.9213C11.6985 8.3113 11.7315 8.6863 11.8125 9.0433C9.85512 8.94733 7.94004 8.43932 6.19245 7.55248C4.44487 6.66563 2.90414 5.41993 1.671 3.8968C1.03923 4.97959 0.843913 6.26246 1.12482 7.48421C1.40574 8.70595 2.14175 9.77469 3.183 10.4728C2.40414 10.4519 1.64171 10.2441 0.96 9.8668V9.9208C0.961305 11.0569 1.354 12.158 2.07198 13.0385C2.78995 13.919 3.78937 14.5253 4.902 14.7553C4.48108 14.8662 4.04728 14.9207 3.612 14.9173C3.29938 14.9229 2.98708 14.8947 2.6805 14.8333C2.99841 15.8098 3.61124 16.6638 4.43459 17.2776C5.25795 17.8915 6.25134 18.2349 7.278 18.2608C5.53641 19.6229 3.38846 20.3617 1.1775 20.3593C0.774 20.3593 0.387 20.3413 0 20.2918C2.24982 21.7416 4.87151 22.5085 7.548 22.4998C16.602 22.4998 21.552 14.9998 21.552 8.4988C21.552 8.2813 21.5445 8.0713 21.534 7.8628C22.5044 7.16828 23.3401 6.30262 24 5.3083Z" fill="#53504B"/>
</svg>
